<svg height="512pt" viewBox="0 0 512 512" width="512pt" xmlns="http://www.w3.org/2000/svg"><path d="m512 256c0 39.476562-8.933594 76.875-24.898438 110.269531-41.203124 86.191407-129.191406 145.730469-231.101562 145.730469-68.253906 0-130.257812-26.707031-176.148438-70.238281-22.632812-21.472657-41.347656-47.03125-54.953124-75.492188-15.964844-33.394531-24.898438-70.792969-24.898438-110.269531 0-141.386719 114.613281-256 256-256s256 114.613281 256 256zm0 0" fill="#fecf32"/><path d="m302.582031 91.210938-54.230469 54.226562c-20.3125 0-38.722656-8.230469-52.035156-21.554688-13.324218-13.3125-21.558594-31.722656-21.558594-52.035156 0-34.691406 23.992188-63.761718 56.289063-71.535156-.25 1.003906-.46875 2.019531-.667969 3.042969-.917968 4.605469-1.390625 9.382812-1.390625 14.261719 0 20.3125 8.234375 38.722656 21.558594 52.035156 13.3125 13.324218 31.722656 21.558594 52.035156 21.558594zm0 0" fill="#a54d2f"/><path d="m302.582031 91.210938-28.253906 28.253906c-14.304687-2.957032-27.085937-10.074219-37.03125-20.023438-13.324219-13.308594-21.558594-31.710937-21.558594-52.035156 0-16.53125 5.445313-31.765625 14.640625-44.050781-.917968 4.605469-1.390625 9.382812-1.390625 14.261719 0 20.3125 8.234375 38.722656 21.558594 52.035156 13.3125 13.324218 31.722656 21.558594 52.035156 21.558594zm0 0" fill="#bc6a46"/><path d="m407.375 164.789062v.011719c0 40.636719-32.945312 73.582031-73.59375 73.582031h-155.574219c-40.636719 0-73.582031-32.945312-73.582031-73.582031v-.011719c0-40.632812 32.945312-73.578124 73.582031-73.578124h155.574219c40.648438 0 73.59375 32.945312 73.59375 73.578124zm0 0" fill="#a54d2f"/><path d="m489.964844 298.152344c0 40.636718-32.949219 73.582031-73.582032 73.582031h-320.765624c-20.320313 0-38.722657-8.234375-52.035157-21.558594-13.320312-13.3125-21.554687-31.703125-21.554687-52.023437 0-40.648438 32.945312-73.59375 73.589844-73.59375h320.765624c20.320313 0 38.710938 8.234375 52.023438 21.558594 13.324219 13.308593 21.558594 31.710937 21.558594 52.035156zm0 0" fill="#a54d2f"/><path d="m489.964844 298.152344c0 17.84375-6.355469 34.207031-16.929688 46.945312h-329.582031c-10.582031-12.738281-16.9375-29.101562-16.9375-46.945312 0-40.648438 32.945313-73.59375 73.59375-73.59375h216.273437c20.320313 0 38.710938 8.234375 52.023438 21.558594 13.324219 13.308593 21.558594 31.710937 21.558594 52.035156zm0 0" fill="#bc6a46"/><path d="m407.375 164.789062v.011719c0 14.429688-4.148438 27.878907-11.328125 39.238281h-211.132813c-7.175781-11.359374-11.324218-24.808593-11.324218-39.238281v-.011719c0-40.632812 32.945312-73.578124 73.582031-73.578124h86.609375c40.648438 0 73.59375 32.945312 73.59375 73.578124zm0 0" fill="#bc6a46"/><path d="m487.101562 366.269531c-41.203124 86.191407-129.191406 145.730469-231.101562 145.730469-68.253906 0-130.257812-26.707031-176.148438-70.238281-22.632812-21.472657-41.347656-47.03125-54.953124-75.492188 4.714843-.953125 9.59375-1.445312 14.578124-1.445312h433.046876c4.996093 0 9.863281.503906 14.578124 1.445312zm0 0" fill="#a54d2f"/><path d="m487.101562 366.269531c-41.203124 86.191407-129.191406 145.730469-231.101562 145.730469-68.253906 0-130.257812-26.707031-176.148438-70.238281-.050781-1.105469-.074218-2.226563-.074218-3.34375 0-40.644531 32.945312-73.59375 73.59375-73.59375h319.152344c4.996093 0 9.863281.503906 14.578124 1.445312zm0 0" fill="#bc6a46"/><path d="m202.421875 331.707031c0 15.761719-12.777344 28.539063-28.539063 28.539063-15.761718 0-28.539062-12.777344-28.539062-28.539063s12.777344-28.539062 28.539062-28.539062c15.761719 0 28.539063 12.777343 28.539063 28.539062zm0 0" fill="#2f373b"/><path d="m366.65625 331.707031c0 15.761719-12.777344 28.539063-28.539062 28.539063-15.761719 0-28.539063-12.777344-28.539063-28.539063s12.777344-28.539062 28.539063-28.539062c15.761718 0 28.539062 12.777343 28.539062 28.539062zm0 0" fill="#2f373b"/><g fill="#fff"><path d="m196.601562 326.671875c0 6.753906-5.472656 12.230469-12.226562 12.230469-6.757812 0-12.230469-5.476563-12.230469-12.230469s5.472657-12.230469 12.230469-12.230469c6.753906 0 12.226562 5.476563 12.226562 12.230469zm0 0"/><path d="m362.242188 326.671875c0 6.753906-5.476563 12.230469-12.230469 12.230469-6.753907 0-12.230469-5.476563-12.230469-12.230469s5.476562-12.230469 12.230469-12.230469c6.753906 0 12.230469 5.476563 12.230469 12.230469zm0 0"/><path d="m196.332031 379.007812c0 32.949219 26.710938 59.660157 59.664063 59.660157 32.949218 0 59.660156-26.710938 59.660156-59.660157"/></g></svg>